<svg width="286" height="44" viewBox="0 0 286 44" fill="none" xmlns="http://www.w3.org/2000/svg">
<path d="M12.5352 37.7461L12.9062 28.4688C8.9349 27.9089 5.875 26.4766 3.72656 24.1719C1.59115 21.8672 0.523438 18.7227 0.523438 14.7383C0.523438 10.4935 1.91667 7.23177 4.70312 4.95312C7.77604 2.41406 12.3398 1.14453 18.3945 1.14453C28.0951 1.14453 33.5182 3.93099 34.6641 9.50391C34.8203 10.3112 35.1654 10.9297 35.6992 11.3594L35.3672 11.7891C34.7422 11.3203 34.0651 11.1185 33.3359 11.1836L25.8164 11.6523C24.944 11.7174 24.3776 12.0365 24.1172 12.6094L23.4727 12.2969C23.6029 12.0104 23.668 11.763 23.668 11.5547C23.668 10.8776 23.4401 10.2917 22.9844 9.79688C22.5417 9.28906 21.9753 8.91146 21.2852 8.66406C19.944 8.18229 18.6419 7.94141 17.3789 7.94141C15.4518 7.94141 13.9479 8.59896 12.8672 9.91406C11.7995 11.2161 11.2656 12.9154 11.2656 15.0117C11.2656 17.0951 11.8711 18.8008 13.082 20.1289C14.306 21.444 16.0182 22.1016 18.2188 22.1016C18.9219 22.1016 19.7031 21.9323 20.5625 21.5938C21.4349 21.2422 22.2031 20.7409 22.8672 20.0898C23.5443 19.4388 23.8828 18.7487 23.8828 18.0195C23.8828 17.8112 23.8112 17.5508 23.668 17.2383L24.3125 16.9062C24.625 17.4922 25.1263 17.8112 25.8164 17.8633C26.5195 17.9154 27.4245 17.987 28.5312 18.0781C30.9661 18.2995 32.6589 18.4102 33.6094 18.4102C34.5599 18.4102 35.3086 18.2083 35.8555 17.8047L36.168 18.2148C35.6862 18.5794 35.3216 19.2565 35.0742 20.2461C34.8398 21.2227 34.3776 22.1667 33.6875 23.0781C32.9974 23.9766 32.2161 24.7253 31.3438 25.3242C30.4844 25.9102 29.4818 26.4245 28.3359 26.8672C26.3698 27.6484 24.2148 28.2018 21.8711 28.5273C21.8711 29.7253 22.0273 31.5026 22.3398 33.8594C22.6523 36.2161 22.8086 37.7852 22.8086 38.5664C22.8086 39.3477 22.7109 39.8945 22.5156 40.207C22.3333 40.5195 22.0599 40.6758 21.6953 40.6758C21.3307 40.6758 21.0508 40.5195 20.8555 40.207C20.6602 39.8945 20.5625 39.3932 20.5625 38.7031C20.5625 38.026 20.6667 36.7044 20.875 34.7383C21.0964 32.7721 21.207 31.457 21.207 30.793C21.207 30.1289 21.1745 29.6797 21.1094 29.4453C21.0443 29.2109 20.9661 29.0286 20.875 28.8984C20.7839 28.7812 20.6276 28.6901 20.4062 28.625C19.8984 28.4948 19.2865 28.4622 18.5703 28.5273C17.138 28.6445 16.4219 28.8854 16.4219 29.25L16.8906 34.5625C16.8906 35.4089 16.6432 35.832 16.1484 35.832C15.6536 35.832 15.4062 35.474 15.4062 34.7578C15.4062 34.0417 15.4909 33.0911 15.6602 31.9062C15.8424 30.7214 15.9336 29.8685 15.9336 29.3477C15.9336 28.8398 15.7643 28.5859 15.4258 28.5859C14.7617 28.5859 14.3125 28.6576 14.0781 28.8008C13.8568 28.944 13.7461 29.0742 13.7461 29.1914L13.9609 37.6484C13.9609 37.8698 13.8893 38.0651 13.7461 38.2344C13.6029 38.4167 13.4271 38.5078 13.2188 38.5078C13.0104 38.5078 12.8411 38.4297 12.7109 38.2734C12.5938 38.1302 12.5352 37.9544 12.5352 37.7461ZM56.8711 31.1641L57.0078 29.2891C57.0078 28.9635 56.8516 28.7096 56.5391 28.5273C56.2266 28.3581 55.888 28.2734 55.5234 28.2734C55.1589 28.2734 54.8333 28.3711 54.5469 28.5664C54.2604 28.7617 54.1172 29.0417 54.1172 29.4062V33.8984C54.1172 34.5495 54.2539 35.5065 54.5273 36.7695C54.8008 38.0326 54.9375 38.931 54.9375 39.4648C54.9375 40.0117 54.8203 40.4609 54.5859 40.8125C54.3516 41.1641 54.026 41.3398 53.6094 41.3398C53.2057 41.3398 52.8997 41.1576 52.6914 40.793C52.4831 40.4284 52.3789 39.9531 52.3789 39.3672C52.3789 38.7812 52.5286 37.7656 52.8281 36.3203C53.1276 34.875 53.2773 33.7552 53.2773 32.9609C53.2773 29.7448 52.6784 28.1367 51.4805 28.1367C49.8659 28.1367 49.0586 28.0716 49.0586 27.9414V27.9805C49.0586 28.8789 49.2539 30.194 49.6445 31.9258C50.0482 33.6706 50.25 34.9206 50.25 35.6758C50.25 36.431 50.1133 37.0495 49.8398 37.5312C49.5664 38.026 49.1432 38.2734 48.5703 38.2734C48.0104 38.2734 47.5677 38.0391 47.2422 37.5703C46.9297 37.1016 46.7734 36.4896 46.7734 35.7344C46.7734 34.9922 46.9622 33.7096 47.3398 31.8867C47.7174 30.0768 47.9062 28.7031 47.9062 27.7656C44.8203 26.7891 42.4961 25.194 40.9336 22.9805C39.3841 20.7669 38.6094 18.0326 38.6094 14.7773C38.6094 8.03255 42.0078 3.77474 48.8047 2.00391C51.0052 1.43099 53.2773 1.14453 55.6211 1.14453C57.9779 1.14453 59.9766 1.27474 61.6172 1.53516C63.2708 1.79557 64.8659 2.25781 66.4023 2.92188C67.9518 3.57292 69.2669 4.40625 70.3477 5.42188C71.4414 6.42448 72.3138 7.72656 72.9648 9.32812C73.6159 10.9167 73.9414 12.7331 73.9414 14.7773C73.9414 18.944 72.7695 22.1732 70.4258 24.4648C68.082 26.7435 64.7878 28.1432 60.543 28.6641C60.4909 28.7552 60.4648 28.8984 60.4648 29.0938L60.5625 30.168C60.5625 30.832 60.3802 31.1641 60.0156 31.1641C59.651 31.1641 59.4688 30.8451 59.4688 30.207L59.5273 29.1133C59.5273 28.7227 59.2474 28.5273 58.6875 28.5273C58.6354 28.6445 58.6094 28.8659 58.6094 29.1914L58.707 31.0859C58.707 31.4766 58.6354 31.8542 58.4922 32.2188C58.349 32.5833 58.1081 32.7656 57.7695 32.7656C57.1706 32.7656 56.8711 32.2318 56.8711 31.1641ZM49.4883 14.7969C49.4883 19.5625 51.7539 21.9453 56.2852 21.9453C60.8164 21.9453 63.082 19.5625 63.082 14.7969C63.082 12.6094 62.4961 10.9362 61.3242 9.77734C60.1523 8.61849 58.4727 8.03906 56.2852 8.03906C54.0977 8.03906 52.418 8.61849 51.2461 9.77734C50.0742 10.9362 49.4883 12.6094 49.4883 14.7969ZM106.637 22.8438L106.559 25.3828C106.559 26.8021 106.845 27.7982 107.418 28.3711L107.008 28.7617C106.513 28.2539 105.862 28 105.055 28H99.3711C99.3841 28.1823 99.3906 28.4232 99.3906 28.7227C99.3906 29.4518 99.2083 29.8164 98.8438 29.8164C98.4792 29.8164 98.2969 29.4062 98.2969 28.5859C98.2969 28.3385 98.3034 28.1432 98.3164 28H80.8359C80.5234 28 80.25 28.5599 80.0156 29.6797C79.7943 30.8125 79.6836 31.7174 79.6836 32.3945C79.6836 33.0716 79.8398 34.2826 80.1523 36.0273C80.4648 37.7852 80.6211 39.1523 80.6211 40.1289C80.6211 41.1185 80.237 41.6133 79.4688 41.6133C78.6354 41.6133 78.2188 41.1055 78.2188 40.0898C78.2188 39.0742 78.3945 37.6615 78.7461 35.8516C79.0977 34.0547 79.2734 32.7005 79.2734 31.7891L79.2539 3.56641C79.2539 2.77214 78.9935 2.12109 78.4727 1.61328L78.8828 1.20312C79.4167 1.72396 80.0677 1.98438 80.8359 1.98438H87.8281C88.6224 1.98438 89.2734 1.72396 89.7812 1.20312L90.1914 1.61328C89.6706 2.12109 89.4102 2.77214 89.4102 3.56641V19.6797C89.4102 20.4609 89.1562 21.1055 88.6484 21.6133L89.0586 22.0234C89.7227 21.3594 91.1745 21.0273 93.4141 21.0273L102.672 21.4961C104.898 21.4961 106.344 21.1641 107.008 20.5L107.418 20.8906C106.897 21.3984 106.637 22.0495 106.637 22.8438ZM99.5078 36.6719C99.5078 37.2057 99.2865 37.4727 98.8438 37.4727C98.401 37.4727 98.1797 37.1536 98.1797 36.5156C98.1797 35.9557 98.2839 35.2656 98.4922 34.4453C98.7135 33.638 98.8307 33.2018 98.8438 33.1367C98.8698 33.2669 98.9349 33.5339 99.0391 33.9375C99.1432 34.3411 99.2214 34.6536 99.2734 34.875C99.4297 35.5391 99.5078 36.138 99.5078 36.6719ZM139.293 22.8438L139.215 25.3828C139.215 26.8021 139.501 27.7982 140.074 28.3711L139.664 28.7617C139.169 28.2539 138.518 28 137.711 28H132.027C132.04 28.1823 132.047 28.4232 132.047 28.7227C132.047 29.4518 131.865 29.8164 131.5 29.8164C131.135 29.8164 130.953 29.4062 130.953 28.5859C130.953 28.3385 130.96 28.1432 130.973 28H113.492C113.18 28 112.906 28.5599 112.672 29.6797C112.451 30.8125 112.34 31.7174 112.34 32.3945C112.34 33.0716 112.496 34.2826 112.809 36.0273C113.121 37.7852 113.277 39.1523 113.277 40.1289C113.277 41.1185 112.893 41.6133 112.125 41.6133C111.292 41.6133 110.875 41.1055 110.875 40.0898C110.875 39.0742 111.051 37.6615 111.402 35.8516C111.754 34.0547 111.93 32.7005 111.93 31.7891L111.91 3.56641C111.91 2.77214 111.65 2.12109 111.129 1.61328L111.539 1.20312C112.073 1.72396 112.724 1.98438 113.492 1.98438H120.484C121.279 1.98438 121.93 1.72396 122.438 1.20312L122.848 1.61328C122.327 2.12109 122.066 2.77214 122.066 3.56641V19.6797C122.066 20.4609 121.812 21.1055 121.305 21.6133L121.715 22.0234C122.379 21.3594 123.831 21.0273 126.07 21.0273L135.328 21.4961C137.555 21.4961 139 21.1641 139.664 20.5L140.074 20.8906C139.553 21.3984 139.293 22.0495 139.293 22.8438ZM132.164 36.6719C132.164 37.2057 131.943 37.4727 131.5 37.4727C131.057 37.4727 130.836 37.1536 130.836 36.5156C130.836 35.9557 130.94 35.2656 131.148 34.4453C131.37 33.638 131.487 33.2018 131.5 33.1367C131.526 33.2669 131.591 33.5339 131.695 33.9375C131.799 34.3411 131.878 34.6536 131.93 34.875C132.086 35.5391 132.164 36.138 132.164 36.6719ZM155.309 24.7578L154.996 22.3359V22.1211C155.27 21.6393 155.641 21.3984 156.109 21.3984L172.047 21.418C172.841 21.418 173.486 21.1641 173.98 20.6562L174.371 21.0469C173.798 21.6198 173.512 22.7135 173.512 24.3281C173.512 24.3281 173.512 24.7057 173.512 25.4609C173.512 26.776 173.798 27.7331 174.371 28.332L173.98 28.7227C173.473 28.2148 172.828 27.9609 172.047 27.9609H148.941C147.783 27.9609 146.93 28.1823 146.383 28.625C145.758 29.1458 145.445 30.6172 145.445 33.0391C145.445 34.0156 145.595 35.4544 145.895 37.3555C146.194 39.2695 146.344 40.7083 146.344 41.6719C146.344 43.0651 145.849 43.7617 144.859 43.7617C143.792 43.7617 143.258 43.0456 143.258 41.6133C143.258 40.6367 143.473 39.1914 143.902 37.2773C144.332 35.3633 144.547 33.9115 144.547 32.9219L144.449 26.3789V3.60547C144.449 2.79818 144.202 2.15365 143.707 1.67188L144.098 1.26172C144.632 1.76953 145.283 2.02344 146.051 2.02344H171.129C171.923 2.02344 172.574 1.76953 173.082 1.26172L173.473 1.67188C172.9 2.24479 172.613 3.32552 172.613 4.91406V6.00781C172.613 7.40104 172.9 8.3776 173.473 8.9375L173.082 9.30859C172.431 8.64453 170.901 8.3125 168.492 8.3125L158.785 8.76172C156.389 8.76172 154.866 8.42969 154.215 7.76562L153.805 8.15625C154.312 8.65104 154.566 9.30859 154.566 10.1289C154.566 10.9362 154.312 11.5872 153.805 12.082L154.215 12.4531C154.84 11.8021 156.155 11.4766 158.16 11.4766L166.344 11.9258C168.362 11.9258 169.697 11.6003 170.348 10.9492L170.758 11.3398C170.185 11.9128 169.898 13.013 169.898 14.6406V15.7344C169.898 17.0755 170.185 18.0456 170.758 18.6445L170.348 19.0547C169.723 18.4036 168.401 18.0781 166.383 18.0781L158.199 18.5078C156.194 18.5078 154.866 18.1823 154.215 17.5312L153.824 17.9219C154.215 18.3125 154.443 18.7812 154.508 19.3281C154.573 19.862 154.612 20.2461 154.625 20.4805C154.638 20.7018 154.638 21.0534 154.625 21.5352C154.612 22.0039 154.605 22.2839 154.605 22.375L154.273 24.7188C154.273 25.1875 154.443 25.4219 154.781 25.4219C155.133 25.4219 155.309 25.2005 155.309 24.7578ZM202.555 21.9453C202.06 21.5547 201.812 21.099 201.812 20.5781V20.4219C201.812 19.901 202.047 19.4062 202.516 18.9375L202.242 18.6836C201.773 19.1523 201.285 19.3867 200.777 19.3867H198.883C198.089 19.3867 197.438 19.6406 196.93 20.1484L196.52 19.7383C197.04 19.2174 197.301 18.5729 197.301 17.8047V14.9141C197.301 14.1328 197.04 13.4818 196.52 12.9609L196.93 12.5703C197.424 13.0651 198.076 13.3125 198.883 13.3125H210.875C211.682 13.3125 212.333 13.0651 212.828 12.5703L213.199 12.9609C212.704 13.4557 212.457 14.1068 212.457 14.9141V23.0977C212.457 23.5013 212.509 23.8268 212.613 24.0742C212.73 24.3086 212.958 24.5169 213.297 24.6992L212.984 25.2656C212.75 25.1484 212.483 25.0898 212.184 25.0898C211.897 25.0898 211.565 25.2135 211.188 25.4609C208.167 27.4792 203.87 28.612 198.297 28.8594V30.7344L198.609 32.9023C198.609 33.2148 198.544 33.4557 198.414 33.625C198.284 33.7943 198.134 33.8789 197.965 33.8789C197.809 33.8789 197.665 33.8008 197.535 33.6445C197.405 33.4883 197.34 33.332 197.34 33.1758C197.34 33.0326 197.366 32.8307 197.418 32.5703C197.574 31.763 197.652 30.9427 197.652 30.1094C197.652 29.276 197.594 28.8594 197.477 28.8594C194.924 28.8594 192.242 28.6836 189.43 28.332C189.312 28.293 189.254 28.9896 189.254 30.4219C189.254 31.8542 189.371 33.332 189.605 34.8555C189.853 36.3789 189.977 37.4401 189.977 38.0391C189.977 39.25 189.605 39.8555 188.863 39.8555C188.512 39.8555 188.206 39.7188 187.945 39.4453C187.698 39.1719 187.574 38.7292 187.574 38.1172C187.574 37.5182 187.789 36.4375 188.219 34.875C188.648 33.3255 188.863 32.1146 188.863 31.2422V28.1953C181.428 26.5286 177.711 22.043 177.711 14.7383C177.711 9.17839 180.003 5.29167 184.586 3.07812C187.229 1.78906 190.458 1.14453 194.273 1.14453C200.432 1.14453 205.159 2.34896 208.453 4.75781C210.237 6.0599 211.376 7.54427 211.871 9.21094C212.105 9.99219 212.522 10.5911 213.121 11.0078L212.828 11.3984C212.294 11.0078 211.591 10.8125 210.719 10.8125L202.477 11.0859C201.656 11.138 201.103 11.4505 200.816 12.0234L200.172 11.7109C200.276 11.4896 200.328 11.2357 200.328 10.9492C200.328 10.6628 200.107 10.2266 199.664 9.64062C199.221 9.04167 198.609 8.59245 197.828 8.29297C197.06 7.98047 196.038 7.82422 194.762 7.82422C193.499 7.82422 192.47 8.00651 191.676 8.37109C190.882 8.73568 190.25 9.23698 189.781 9.875C188.87 11.1641 188.414 12.8698 188.414 14.9922C188.414 17.1146 189.091 18.8659 190.445 20.2461C191.812 21.6133 193.596 22.2969 195.797 22.2969C197.997 22.2969 199.671 22.1536 200.816 21.8672C201.025 21.8151 201.227 21.7891 201.422 21.7891C201.617 21.7891 201.917 21.9453 202.32 22.2578L202.555 21.9453ZM229.176 24.7578L228.863 22.3359V22.1211C229.137 21.6393 229.508 21.3984 229.977 21.3984L245.914 21.418C246.708 21.418 247.353 21.1641 247.848 20.6562L248.238 21.0469C247.665 21.6198 247.379 22.7135 247.379 24.3281C247.379 24.3281 247.379 24.7057 247.379 25.4609C247.379 26.776 247.665 27.7331 248.238 28.332L247.848 28.7227C247.34 28.2148 246.695 27.9609 245.914 27.9609H222.809C221.65 27.9609 220.797 28.1823 220.25 28.625C219.625 29.1458 219.312 30.6172 219.312 33.0391C219.312 34.0156 219.462 35.4544 219.762 37.3555C220.061 39.2695 220.211 40.7083 220.211 41.6719C220.211 43.0651 219.716 43.7617 218.727 43.7617C217.659 43.7617 217.125 43.0456 217.125 41.6133C217.125 40.6367 217.34 39.1914 217.77 37.2773C218.199 35.3633 218.414 33.9115 218.414 32.9219L218.316 26.3789V3.60547C218.316 2.79818 218.069 2.15365 217.574 1.67188L217.965 1.26172C218.499 1.76953 219.15 2.02344 219.918 2.02344H244.996C245.79 2.02344 246.441 1.76953 246.949 1.26172L247.34 1.67188C246.767 2.24479 246.48 3.32552 246.48 4.91406V6.00781C246.48 7.40104 246.767 8.3776 247.34 8.9375L246.949 9.30859C246.298 8.64453 244.768 8.3125 242.359 8.3125L232.652 8.76172C230.257 8.76172 228.733 8.42969 228.082 7.76562L227.672 8.15625C228.18 8.65104 228.434 9.30859 228.434 10.1289C228.434 10.9362 228.18 11.5872 227.672 12.082L228.082 12.4531C228.707 11.8021 230.022 11.4766 232.027 11.4766L240.211 11.9258C242.229 11.9258 243.564 11.6003 244.215 10.9492L244.625 11.3398C244.052 11.9128 243.766 13.013 243.766 14.6406V15.7344C243.766 17.0755 244.052 18.0456 244.625 18.6445L244.215 19.0547C243.59 18.4036 242.268 18.0781 240.25 18.0781L232.066 18.5078C230.061 18.5078 228.733 18.1823 228.082 17.5312L227.691 17.9219C228.082 18.3125 228.31 18.7812 228.375 19.3281C228.44 19.862 228.479 20.2461 228.492 20.4805C228.505 20.7018 228.505 21.0534 228.492 21.5352C228.479 22.0039 228.473 22.2839 228.473 22.375L228.141 24.7188C228.141 25.1875 228.31 25.4219 228.648 25.4219C229 25.4219 229.176 25.2005 229.176 24.7578Z" fill="white"/>
<path d="M262.887 28.5859C262.574 28.013 262.027 27.7266 261.246 27.7266H252.027C251.246 27.7266 250.504 27.8893 249.801 28.2148L249.645 27.9219C250.387 27.5573 250.992 27.082 251.461 26.4961L260.895 15.1094C261.402 14.5104 262.008 14.2109 262.711 14.2109V13.6055C262.021 13.6055 261.435 13.2865 260.953 12.6484L253.297 2.84375C252.815 2.21875 252.229 1.73698 251.539 1.39844L251.695 1.08594C252.372 1.42448 253.108 1.59375 253.902 1.59375L262.613 1.63281C263.408 1.63281 263.948 1.33984 264.234 0.753906L264.859 1.06641C264.729 1.36589 264.658 1.63932 264.645 1.88672C264.645 2.13411 264.814 2.47266 265.152 2.90234L267.418 5.83203C267.887 6.43099 268.121 7.11458 268.121 7.88281H268.609C268.609 7.1276 268.85 6.44401 269.332 5.83203L271.598 2.90234C271.91 2.48568 272.066 2.14714 272.066 1.88672C272.066 1.61328 272.008 1.33984 271.891 1.06641L272.516 0.753906C272.802 1.33984 273.342 1.63281 274.137 1.63281L282.633 1.59375C283.414 1.59375 284.156 1.43099 284.859 1.10547L284.996 1.39844C284.306 1.73698 283.714 2.21224 283.219 2.82422L275.191 12.668C274.697 13.2799 274.098 13.5859 273.395 13.5859V14.2109C274.098 14.2109 274.69 14.5169 275.172 15.1289L284.137 26.4961C284.592 27.082 285.185 27.5573 285.914 27.9219L285.758 28.2344C285.081 27.8958 284.345 27.7266 283.551 27.7266H274.527C273.954 27.7266 273.505 27.9154 273.18 28.293C272.854 28.6706 272.691 29.3477 272.691 30.3242C272.691 31.3138 272.828 33.013 273.102 35.4219C273.375 37.8307 273.512 39.4323 273.512 40.2266C273.512 41.0339 273.355 41.6133 273.043 41.9648C272.743 42.3164 272.392 42.4922 271.988 42.4922C271.598 42.4922 271.259 42.3359 270.973 42.0234C270.699 41.724 270.562 41.1901 270.562 40.4219C270.562 39.6667 270.784 38.0065 271.227 35.4414C271.682 32.8763 271.91 31.112 271.91 30.1484L271.93 26.4375L268.824 22.0234C268.355 21.3333 268.121 20.6432 268.121 19.9531H267.633C267.633 20.6953 267.405 21.3854 266.949 22.0234L263.766 26.4375C263.466 26.8672 263.316 27.2057 263.316 27.4531C263.316 27.7005 263.388 27.9674 263.531 28.2539L262.887 28.5859Z" fill="#FBB200"/>
</svg>
