<svg width="26" height="30" viewBox="0 0 26 30" fill="none" xmlns="http://www.w3.org/2000/svg">
<path fill-rule="evenodd" clip-rule="evenodd" d="M23.218 25.7394C24.103 24.3894 24.433 23.6994 25.108 22.1845C20.1281 20.2945 19.3331 13.1996 24.253 10.4847C22.7531 8.59472 20.6381 7.49976 18.6431 7.49976C17.2032 7.49976 16.2132 7.87476 15.3282 8.21976C14.5782 8.50475 13.9032 8.75973 13.0632 8.75973C12.1633 8.75973 11.3683 8.47475 10.5283 8.17476C9.61331 7.84476 8.65327 7.49976 7.4533 7.49976C5.21834 7.49976 2.8334 8.86473 1.31843 11.2047C-0.811523 14.5046 -0.436531 20.6845 2.9984 25.9644C4.22838 27.8544 5.87834 29.9693 8.0233 29.9993C8.92328 30.0143 9.50827 29.7443 10.1533 29.4593C10.8883 29.1293 11.6833 28.7693 13.0782 28.7693C14.4732 28.7543 15.2532 29.1293 15.9882 29.4593C16.6182 29.7443 17.1882 30.0143 18.0731 29.9993C20.2481 29.9693 21.9881 27.6294 23.218 25.7394Z" fill="#0F0F0F"/>
<path fill-rule="evenodd" clip-rule="evenodd" d="M18.3289 0C18.5689 1.64997 17.8939 3.28495 17.0089 4.42493C16.0639 5.6549 14.414 6.61487 12.824 6.55487C12.539 4.9649 13.274 3.32992 14.174 2.23494C15.179 1.03496 16.8739 0.104998 18.3289 0Z" fill="#0F0F0F"/>
</svg>
